<svg width="21" height="22" viewBox="0 0 21 22" fill="none" xmlns="http://www.w3.org/2000/svg">
<circle cx="10.274" cy="11.0587" r="10.1569" fill="white"/>
<g clip-path="url(#clip0_1444_9316)">
<path fill-rule="evenodd" clip-rule="evenodd" d="M8.30228 16.7141C10.2153 16.7141 11.853 15.6509 12.5292 14.1438C12.5374 14.1254 9.81463 14.8514 9.90145 14.5947C9.94022 14.4801 11.6093 13.8704 12.8253 13.1592C13.5243 12.7504 13.8461 11.8851 13.8461 11.8851C13.8461 11.8851 12.6686 12.4568 12.0733 12.6018C10.8737 12.8941 9.81779 12.8626 9.81779 12.8322C9.81779 12.7663 11.5712 12.4332 14.0082 10.9481C15.1545 10.2496 15.4658 9.0464 15.4658 9.0464C15.4658 9.0464 14.2056 9.79708 13.4437 10.0449C11.637 10.6326 9.98827 10.8097 9.98827 10.7302C9.98827 10.5599 11.4392 10.161 12.9775 9.41557C13.7774 9.02801 14.4701 8.52167 15.2728 7.95859C16.5863 7.0373 16.8029 5.39648 16.8029 5.39648C16.8029 5.39648 15.5075 6.23205 14.8753 6.50953C12.2666 7.65451 9.96312 8.25512 8.30228 8.38514C5.79519 8.58143 3.74414 10.3307 3.74414 12.6018C3.74414 14.873 5.78488 16.7141 8.30228 16.7141Z" fill="#89AAE3"/>
</g>
<defs>
<clipPath id="clip0_1444_9316">
<rect width="13.0588" height="13.0588" fill="white" transform="translate(3.74414 4.5293)"/>
</clipPath>
</defs>
</svg>
