<svg width="21" height="22" viewBox="0 0 21 22" fill="none" xmlns="http://www.w3.org/2000/svg">
<circle cx="10.1569" cy="11.0587" r="10.1569" fill="white"/>
<g clip-path="url(#clip0_1444_9309)">
<path fill-rule="evenodd" clip-rule="evenodd" d="M12.6119 14.614C12.7733 14.0241 12.4601 12.8112 12.4601 12.8112C12.4601 12.8112 12.233 13.7992 11.878 14.1644C11.5752 14.4759 11.2042 14.692 10.6722 14.7488C11.1072 14.5375 11.4063 14.0969 11.4063 13.5877C11.4063 12.8729 10.8169 12.2934 10.0897 12.2934C9.36253 12.2934 8.77303 12.8729 8.77303 13.5877C8.77303 13.7829 8.81702 13.9681 8.89576 14.1341C8.44094 13.7717 8.36943 13.1908 8.36943 13.1908C8.36943 13.1908 7.86156 15.2994 9.26095 16.2912C10.6603 17.2831 13.4016 16.4305 13.4016 16.4305C13.4016 16.4305 9.47864 19.1908 6.57167 16.1866C4.06756 13.5986 5.91809 10.1916 5.91809 10.1916C5.91809 10.1916 5.83818 10.5077 5.83818 10.8746C5.83818 11.2415 6.0371 11.5206 6.0371 11.5206C6.0371 11.5206 6.63049 10.2698 7.09229 9.76119C7.52935 9.2798 8.07724 8.88936 8.55046 8.55213C8.91473 8.29253 9.23478 8.06446 9.42592 7.8507C10.4787 6.67351 9.83319 4.5293 9.83319 4.5293C9.83319 4.5293 11.02 5.57553 11.3513 6.92676C11.4776 7.44182 11.3963 8.02786 11.3237 8.55192C11.2057 9.40269 11.1104 10.0901 11.9624 10.0455C13.3393 9.97342 12.1428 7.8507 12.1428 7.8507C12.1428 7.8507 15.266 9.49224 15.0327 12.3632C14.7994 15.2341 11.6189 15.8868 11.6189 15.8868C11.6189 15.8868 12.4506 15.204 12.6119 14.614Z" fill="#FF9D55"/>
</g>
<defs>
<clipPath id="clip0_1444_9309">
<rect width="13.0588" height="13.0588" fill="white" transform="translate(3.62695 4.5293)"/>
</clipPath>
</defs>
</svg>
