<svg width="21" height="22" viewBox="0 0 21 22" fill="none" xmlns="http://www.w3.org/2000/svg">
<circle cx="10.1569" cy="11.0587" r="10.1569" fill="white"/>
<g clip-path="url(#clip0_1444_2299)">
<path fill-rule="evenodd" clip-rule="evenodd" d="M14.3941 13.3673C14.3941 15.6981 12.4975 17.5875 10.158 17.5875C7.81844 17.5875 5.92188 15.6981 5.92188 13.3673C5.92188 11.1005 9.92884 4.87484 10.1486 4.53511C10.1536 4.52736 10.1624 4.52736 10.1674 4.53511C10.3871 4.87484 14.3941 11.1005 14.3941 13.3673ZM9.45184 16.2346C7.30223 15.7642 7.67007 13.383 7.67007 13.383C7.67007 13.383 8.25706 14.8205 9.68151 15.2861C11.1059 15.7517 12.8274 15.0688 12.8274 15.0688C12.8274 15.0688 11.6014 16.7049 9.45184 16.2346Z" fill="#5090D6"/>
</g>
<defs>
<clipPath id="clip0_1444_2299">
<rect width="13.0588" height="13.0588" fill="white" transform="translate(3.62695 4.5293)"/>
</clipPath>
</defs>
</svg>
