<svg width="28" height="28" viewBox="0 0 28 28" fill="none" xmlns="http://www.w3.org/2000/svg">
<circle cx="14" cy="14" r="14" fill="white"/>
<path fill-rule="evenodd" clip-rule="evenodd" d="M10.3636 5.02052C10.3601 5.01048 10.3676 5 10.3782 5H16.7003C16.7071 5 16.7131 5.00442 16.7151 5.01089L19.619 14.3927C19.622 14.4027 19.6146 14.4128 19.6042 14.4128H15.3953C15.3901 14.4128 15.3865 14.4177 15.3879 14.4226L17.8018 22.9201C17.8065 22.9365 17.7849 22.9473 17.7746 22.9336L8.39376 10.4586C8.38609 10.4484 8.39337 10.4339 8.40611 10.4339H12.226C12.2313 10.4339 12.2351 10.4286 12.2333 10.4236L10.3636 5.02052Z" fill="#F4D23C"/>
</svg>
