<svg width="28" height="28" viewBox="0 0 28 28" fill="none" xmlns="http://www.w3.org/2000/svg">
<circle cx="14" cy="14" r="14" fill="white"/>
<g clip-path="url(#clip0_1457_21855)">
<path fill-rule="evenodd" clip-rule="evenodd" d="M18.8916 13.6047C18.8905 13.6033 18.8901 13.6016 18.8904 13.5999L20.0388 6.90377C20.0393 6.90069 20.042 6.89844 20.0451 6.89844H20.4085C20.4113 6.89844 20.4138 6.90026 20.4146 6.90293L23.0018 15.0944C23.0026 15.097 23.0017 15.0998 22.9996 15.1014L21.0921 16.5908C21.0892 16.593 21.0851 16.5924 21.083 16.5895L18.8916 13.6047ZM4.96484 18.0437C4.96484 18.0465 4.96663 18.049 4.96927 18.0499L8.90146 19.3356C8.90336 19.3362 8.90547 19.3359 8.90712 19.3347L17.6965 13.2668C17.698 13.2658 17.699 13.2642 17.6992 13.2624L18.6417 6.93811C18.6423 6.93423 18.6393 6.93074 18.6354 6.93074H10.8502C10.8483 6.93074 10.8465 6.93159 10.8453 6.93306L4.96632 14.0251C4.96537 14.0263 4.96484 14.0277 4.96484 14.0292V18.0437ZM10.54 19.6631L14.8359 21.0703C14.8378 21.071 14.84 21.0707 14.8416 21.0695L19.9561 17.4008C19.9589 17.3988 19.9597 17.3949 19.9577 17.392L18.0404 14.5389C18.0384 14.5359 18.0344 14.5351 18.0315 14.5372L10.54 19.6631Z" fill="#C5B78C"/>
</g>
<defs>
<clipPath id="clip0_1457_21855">
<rect width="18" height="18" fill="white" transform="translate(5 5)"/>
</clipPath>
</defs>
</svg>
